<svg width="16" height="16" viewBox="0 0 16 16" fill="none" xmlns="http://www.w3.org/2000/svg">
<path d="M7.92058 0.166534C3.54688 0.166534 0 3.76253 0 8.19853C0 11.7465 2.26953 14.7565 5.41835 15.8195C5.81443 15.8935 5.959 15.6455 5.959 15.4325C5.959 15.2415 5.95207 14.7365 5.94811 14.0665C3.74492 14.5515 3.27953 12.9895 3.27953 12.9895C2.92009 12.0615 2.40024 11.8145 2.40024 11.8145C1.68036 11.3165 2.45371 11.3265 2.45371 11.3265C3.24883 11.3835 3.6667 12.1545 3.6667 12.1545C4.3737 13.3815 5.52133 13.0275 5.97286 12.8215C6.04416 12.3025 6.24913 11.9485 6.47588 11.7475C4.71729 11.5445 2.86761 10.8555 2.86761 7.77853C2.86761 6.90153 3.17655 6.18453 3.68353 5.62253C3.60134 5.41953 3.33003 4.60253 3.76076 3.49753C3.76076 3.49753 4.42618 3.28153 5.9392 4.32053C6.57094 4.14253 7.24824 4.05353 7.92256 4.05053C8.5949 4.05453 9.27319 4.14253 9.90592 4.32153C11.418 3.28253 12.0824 3.49853 12.0824 3.49853C12.5141 4.60453 12.2428 5.42053 12.1616 5.62353C12.6696 6.18553 12.9755 6.90253 12.9755 7.77953C12.9755 10.8645 11.1239 11.5435 9.35933 11.7425C9.64352 11.9905 9.89701 12.4805 9.89701 13.2295C9.89701 14.3035 9.88711 15.1695 9.88711 15.4325C9.88711 15.6475 10.0297 15.8975 10.4317 15.8185C13.5756 14.7545 15.8431 11.7455 15.8431 8.19853C15.8431 3.76253 12.2963 0.166534 7.92058 0.166534Z" fill="#C4C4CC"/>
</svg>
